<?xml version="1.0" encoding="UTF-8"?>
<svg version="1.1" xmlns="http://www.w3.org/2000/svg" width="1011" height="726">
<path d="M0 0 C24.4620289 -0.07027384 48.92404253 -0.12307785 73.38615227 -0.15543652 C84.74591331 -0.17086469 96.10561141 -0.19187624 107.46533203 -0.22631836 C117.37360368 -0.25634527 127.28182972 -0.27560439 137.19014561 -0.28226548 C142.43003245 -0.28615534 147.66978886 -0.29521138 152.90963364 -0.31719017 C157.85573281 -0.33776598 162.80164956 -0.34379182 167.74778748 -0.33932304 C169.54952618 -0.34013892 171.35127188 -0.34597755 173.15297318 -0.35761642 C189.35143654 -0.45700004 204.74061575 1.3091544 220.125 6.6875 C221.14070068 7.03562744 222.15640137 7.38375488 223.20288086 7.74243164 C231.87574353 10.79734018 240.00561274 14.47175519 248 19 C248.63728027 19.35707031 249.27456055 19.71414062 249.93115234 20.08203125 C278.28490481 36.11021991 304.79217423 59.80097452 320 89 C320 89.66 320 90.32 320 91 C251.69 91.33 183.38 91.66 113 92 C120.31437206 111.97463698 120.31437206 111.97463698 133.875 128.3125 C134.47054687 128.76238281 135.06609375 129.21226562 135.6796875 129.67578125 C141.87330371 133.21052182 147.29888153 134.44441468 154.30683899 134.36508179 C155.10376685 134.36820078 155.90069471 134.37131978 156.7217719 134.3745333 C159.37110603 134.38143397 162.01989078 134.36718854 164.66918945 134.35302734 C166.57680872 134.35385876 168.48442782 134.35607687 170.39204407 134.35957336 C174.48879905 134.3645116 178.58541059 134.36044857 182.6821537 134.34955978 C189.15683001 134.33317995 195.63132695 134.34167208 202.10600281 134.35440063 C219.34802669 134.38450108 236.59001746 134.38301621 253.83205432 134.36414778 C265.17167981 134.35183203 276.51110197 134.35361865 287.8507039 134.38253558 C294.29116676 134.39780439 300.7310787 134.39023786 307.17150748 134.36582541 C311.1694814 134.35578541 315.16719992 134.36641034 319.16514397 134.38294029 C321.0231736 134.38640402 322.88124162 134.38124379 324.73921967 134.36697197 C327.26950548 134.34873334 329.79784994 134.36094651 332.32807922 134.38095093 C333.06872771 134.36823131 333.8093762 134.35551169 334.57246858 134.34240663 C336.62343311 134.37752342 336.62343311 134.37752342 340 135 C341.90784168 137.3883934 341.90784168 137.3883934 343 140 C343.37832977 140.79356903 343.75665955 141.58713806 344.14645386 142.40475464 C344.50917389 143.24168854 344.87189392 144.07862244 345.24560547 144.94091797 C345.87364578 146.38340912 345.87364578 146.38340912 346.51437378 147.8550415 C346.96080231 148.89029968 347.40723083 149.92555786 347.8671875 150.9921875 C348.33899445 152.07900818 348.81080139 153.16582886 349.29690552 154.2855835 C350.82695412 157.81366531 352.35146658 161.34410028 353.875 164.875 C354.39078613 166.06841003 354.90657227 167.26182007 355.43798828 168.49139404 C358.50823518 175.59558828 361.57078806 182.70305885 364.6282959 189.81274414 C365.87247996 192.70369776 367.11959683 195.59335928 368.36816406 198.48242188 C369.97824186 202.20991383 371.57898165 205.94121745 373.16900635 209.67730713 C373.7203178 210.96947752 374.27477422 212.26031088 374.8324585 213.54974365 C375.58498773 215.29224648 376.32419981 217.04048331 377.0625 218.7890625 C377.46597656 219.73475098 377.86945313 220.68043945 378.28515625 221.65478516 C379 224 379 224 378 227 C337.74 227.33 297.48 227.66 256 228 C258.97 231.63 261.94 235.26 265 239 C266.75841349 241.51098552 268.44462788 243.97213644 270.0625 246.5625 C270.45115234 247.16384766 270.83980469 247.76519531 271.24023438 248.38476562 C274 252.7312748 274 252.7312748 274 255 C261.73214117 255.74597652 249.52680954 256.14330874 237.23754883 256.11352539 C235.55989076 256.11324223 233.88223258 256.11340376 232.20457458 256.1139679 C227.71822824 256.11425085 223.23190949 256.10843649 218.74556947 256.10139394 C214.03177171 256.09507568 209.31797309 256.09454998 204.60417175 256.09336853 C195.70830753 256.0902799 186.81245582 256.08210032 177.91659707 256.07201904 C167.77608509 256.06078056 157.63557247 256.0553281 147.49505579 256.05032361 C126.66336358 256.03991521 105.83168259 256.02236436 85 256 C86.57350733 259.71257814 88.16053648 263.41922831 89.75 267.125 C90.1934375 268.17171875 90.636875 269.2184375 91.09375 270.296875 C94.1088898 277.30264101 96.9492445 283.54592126 102.75 288.6875 C103.67039062 289.52861328 103.67039062 289.52861328 104.609375 290.38671875 C110.35043735 294.26099775 115.88986747 295.37461111 122.71960449 295.39872742 C123.82016607 295.40869766 123.82016607 295.40869766 124.94296122 295.41886932 C127.37813463 295.43738057 129.81281157 295.43490216 132.24804688 295.43237305 C134.00290616 295.44139749 135.75775915 295.45172638 137.51260376 295.46325684 C142.25992929 295.49077284 147.00713503 295.50010402 151.75452995 295.50611091 C156.72202146 295.51550863 161.68942398 295.54171317 166.65686035 295.56611633 C176.05597396 295.60974654 185.45507026 295.63831489 194.85425425 295.66143972 C205.55803592 295.68851002 216.26172793 295.73242042 226.96544552 295.77772844 C248.97691541 295.8705249 270.98841214 295.94222854 293 296 C294.11188889 298.2057004 295.22177396 300.41237249 296.33056641 302.61962891 C296.6417189 303.23636978 296.9528714 303.85311066 297.27345276 304.48854065 C300.21484255 310.35082191 302.82998496 316.33064662 305.375 322.375 C306.12784203 324.15141357 306.88069862 325.927821 307.63392639 327.70407104 C308.17844571 328.98890162 308.72232621 330.27400308 309.26560974 331.55935669 C311.28867451 336.34114615 313.33792092 341.11123115 315.39691162 345.87765503 C316.98137759 349.54746304 318.55942703 353.2200132 320.13677979 356.8928833 C320.92030002 358.71361299 321.70639179 360.53323823 322.49505615 362.35174561 C323.60424026 364.91112662 324.70357885 367.47452674 325.80078125 370.0390625 C326.13971909 370.81485657 326.47865692 371.59065063 326.8278656 372.38995361 C327.61183523 374.23564869 328.31452336 376.11550525 329 378 C328.67 378.66 328.34 379.32 328 380 C296.32 380.33 264.64 380.66 232 381 C235.96 385.95 239.92 390.9 244 396 C252 408.42105263 252 408.42105263 252 410 C213.07389688 410.97244992 174.17233834 411.12962073 135.23726606 411.07202661 C127.33063934 411.06054792 119.4240114 411.05527684 111.51737833 411.05032361 C95.34490908 411.04006339 79.17245677 411.0226516 63 411 C64.60525876 414.59850936 66.22311252 418.19106457 67.85229492 421.77880859 C68.67305852 423.59307762 69.48408157 425.4117431 70.29492188 427.23046875 C74.84159502 437.21641345 79.09768943 444.35098088 89.71911621 448.58836079 C93.76600313 450.0663397 97.35267626 450.38335467 101.68164062 450.39872742 C102.41126479 450.40537424 103.14088896 450.41202107 103.89262295 450.41886932 C106.31397769 450.43737895 108.73483304 450.43490228 111.15625 450.43237305 C112.90125723 450.44139759 114.64625813 450.4517265 116.39125061 450.46325684 C121.11171759 450.49077167 125.8320641 450.50010386 130.55260086 450.50611091 C135.49206542 450.51550894 140.4314405 450.5417135 145.37084961 450.56611633 C154.71683917 450.6097457 164.06281132 450.63831456 173.40887165 450.66143972 C184.05219527 450.68851048 194.69542872 450.73242085 205.3386879 450.77772844 C227.22574339 450.87052369 249.11282587 450.94222788 271 451 C272.10958279 453.20002354 273.21703562 455.40107803 274.32333374 457.60275269 C274.63351661 458.21723109 274.94369947 458.8317095 275.26328182 459.46480846 C278.27106446 465.45816816 280.93606892 471.5786725 283.5390625 477.7578125 C284.02780853 478.90812958 284.51655457 480.05844666 285.02011108 481.24362183 C286.55925048 484.86899363 288.09219663 488.49694551 289.625 492.125 C290.65845338 494.56136796 291.69230473 496.99756715 292.7265625 499.43359375 C297.63711795 511.00897289 297.63711795 511.00897289 299.70831299 515.94293213 C300.60650806 518.06871282 301.51794703 520.18892635 302.43963623 522.30462646 C302.89832092 523.3692511 303.35700562 524.43387573 303.82958984 525.53076172 C304.24606781 526.485383 304.66254578 527.44000427 305.09164429 528.42355347 C306 531 306 531 306 535 C283.90215216 535.07032681 261.80432297 535.1231035 239.70638561 535.15543652 C229.44411141 535.17085359 219.18190707 535.19184348 208.91967773 535.22631836 C199.9669012 535.25637973 191.0141753 535.27561241 182.06134969 535.28226548 C177.32835923 535.28614962 172.59551351 535.29516799 167.86256981 535.31719017 C163.39169166 535.33782094 158.92101546 535.34378119 154.45009422 535.33932304 C152.82454321 535.34013654 151.19898418 535.34594171 149.57347488 535.35761642 C132.05102275 535.47710418 115.50627451 532.92943842 99 527 C97.50146484 526.46439453 97.50146484 526.46439453 95.97265625 525.91796875 C81.17016934 520.17159866 67.56446641 511.6172459 55 502 C54.05898438 501.28328125 53.11796875 500.5665625 52.1484375 499.828125 C36.65304166 487.59256748 24.01188332 473.01093137 14 456 C13.4225 455.03320312 12.845 454.06640625 12.25 453.0703125 C6.40405084 442.71811085 2.00939652 431.73964311 -2.52522278 420.77055359 C-2.81209457 420.07670059 -3.09896637 419.3828476 -3.39453125 418.66796875 C-3.68611618 417.96263504 -3.97770111 417.25730133 -4.27812195 416.53059387 C-7.34013479 409.14392387 -10.51127432 401.80562731 -13.69604492 394.47122192 C-14.68880604 392.18449167 -15.67965784 389.89694347 -16.66992188 387.60913086 C-19.5977033 380.84610911 -22.5279246 374.08417055 -25.46728516 367.32617188 C-27.57581439 362.47726474 -29.67687285 357.6251743 -31.77359009 352.77114868 C-32.58715249 350.89139379 -33.40335072 349.01277737 -34.22225952 347.13534546 C-35.36320721 344.51885436 -36.49509638 341.89861914 -37.625 339.27734375 C-38.1393737 338.10652252 -38.1393737 338.10652252 -38.66413879 336.91204834 C-40.19730762 333.33086943 -41 330.95249997 -41 327 C6.52 326.505 6.52 326.505 55 326 C51.7 322.04 48.4 318.08 45 314 C27.61592886 290.03955004 17.68899482 260.73768186 6.1496582 233.70532227 C2.49341828 225.14156379 -1.17344975 216.58322857 -4.89448547 208.04737854 C-6.58947699 204.1580499 -8.27759262 200.26575381 -9.96530151 196.3732605 C-10.77724625 194.50598426 -11.59259353 192.64018369 -12.41140747 190.77590942 C-13.54726714 188.18891456 -14.67133901 185.59709547 -15.79296875 183.00390625 C-16.13470123 182.23405396 -16.47643372 181.46420166 -16.82852173 180.67102051 C-19.11386896 175.34160687 -19.11386896 175.34160687 -18 172 C15.66 172 49.32 172 84 172 C80.7 168.37 77.4 164.74 74 161 C56.01545767 138.46408701 45.70623519 111.53768766 34.62304688 85.21679688 C30.2634168 74.87066051 25.84801195 64.54817113 21.4437561 54.22097778 C19.97968396 50.78645799 18.51718689 47.35127294 17.05541992 43.91577148 C16.59263138 42.82841202 16.12984283 41.74105255 15.6530304 40.6207428 C14.74535387 38.48693732 13.83850608 36.3527791 12.93254089 34.21824646 C10.75362261 29.09016389 8.55594852 23.97177245 6.31689453 18.86962891 C5.89501358 17.90297806 5.47313263 16.93632721 5.03846741 15.94038391 C4.24611557 14.12762767 3.44798886 12.31738039 2.64305115 10.51017761 C2.29363968 9.70864761 1.94422821 8.90711761 1.58422852 8.08129883 C1.12307396 7.03828362 1.12307396 7.03828362 0.65260315 5.97419739 C0 4 0 4 0 0 Z " fill="#4585ED" transform="translate(306,91)"/>
<path d="M0 0 C24.4620289 -0.07027384 48.92404253 -0.12307785 73.38615227 -0.15543652 C84.74591331 -0.17086469 96.10561141 -0.19187624 107.46533203 -0.22631836 C117.37360368 -0.25634527 127.28182972 -0.27560439 137.19014561 -0.28226548 C142.43003245 -0.28615534 147.66978886 -0.29521138 152.90963364 -0.31719017 C157.85573281 -0.33776598 162.80164956 -0.34379182 167.74778748 -0.33932304 C169.54952618 -0.34013892 171.35127188 -0.34597755 173.15297318 -0.35761642 C189.35143654 -0.45700004 204.74061575 1.3091544 220.125 6.6875 C221.14070068 7.03562744 222.15640137 7.38375488 223.20288086 7.74243164 C231.87574353 10.79734018 240.00561274 14.47175519 248 19 C248.63728027 19.35707031 249.27456055 19.71414062 249.93115234 20.08203125 C278.28490481 36.11021991 304.79217423 59.80097452 320 89 C320 89.66 320 90.32 320 91 C251.69 91.33 183.38 91.66 113 92 C120.31437206 111.97463698 120.31437206 111.97463698 133.875 128.3125 C134.47054687 128.76238281 135.06609375 129.21226562 135.6796875 129.67578125 C141.87330371 133.21052182 147.29888153 134.44441468 154.30683899 134.36508179 C155.10376685 134.36820078 155.90069471 134.37131978 156.7217719 134.3745333 C159.37110603 134.38143397 162.01989078 134.36718854 164.66918945 134.35302734 C166.57680872 134.35385876 168.48442782 134.35607687 170.39204407 134.35957336 C174.48879905 134.3645116 178.58541059 134.36044857 182.6821537 134.34955978 C189.15683001 134.33317995 195.63132695 134.34167208 202.10600281 134.35440063 C219.34802669 134.38450108 236.59001746 134.38301621 253.83205432 134.36414778 C265.17167981 134.35183203 276.51110197 134.35361865 287.8507039 134.38253558 C294.29116676 134.39780439 300.7310787 134.39023786 307.17150748 134.36582541 C311.1694814 134.35578541 315.16719992 134.36641034 319.16514397 134.38294029 C321.0231736 134.38640402 322.88124162 134.38124379 324.73921967 134.36697197 C327.26950548 134.34873334 329.79784994 134.36094651 332.32807922 134.38095093 C333.06872771 134.36823131 333.8093762 134.35551169 334.57246858 134.34240663 C336.62343311 134.37752342 336.62343311 134.37752342 340 135 C341.90784168 137.3883934 341.90784168 137.3883934 343 140 C343.37832977 140.79356903 343.75665955 141.58713806 344.14645386 142.40475464 C344.50917389 143.24168854 344.87189392 144.07862244 345.24560547 144.94091797 C345.87364578 146.38340912 345.87364578 146.38340912 346.51437378 147.8550415 C346.96080231 148.89029968 347.40723083 149.92555786 347.8671875 150.9921875 C348.33899445 152.07900818 348.81080139 153.16582886 349.29690552 154.2855835 C350.82695412 157.81366531 352.35146658 161.34410028 353.875 164.875 C354.39078613 166.06841003 354.90657227 167.26182007 355.43798828 168.49139404 C358.50823518 175.59558828 361.57078806 182.70305885 364.6282959 189.81274414 C365.87247996 192.70369776 367.11959683 195.59335928 368.36816406 198.48242188 C369.97824186 202.20991383 371.57898165 205.94121745 373.16900635 209.67730713 C373.7203178 210.96947752 374.27477422 212.26031088 374.8324585 213.54974365 C375.58498773 215.29224648 376.32419981 217.04048331 377.0625 218.7890625 C377.46597656 219.73475098 377.86945313 220.68043945 378.28515625 221.65478516 C379 224 379 224 378 227 C337.74 227.33 297.48 227.66 256 228 C258.97 231.63 261.94 235.26 265 239 C266.75841349 241.51098552 268.44462788 243.97213644 270.0625 246.5625 C270.45115234 247.16384766 270.83980469 247.76519531 271.24023438 248.38476562 C274 252.7312748 274 252.7312748 274 255 C258.74453089 256.01687685 243.53557854 256.15826131 228.25 256.125 C227.03341705 256.12378143 225.81683411 256.12256287 224.56338501 256.12130737 C208.4342808 256.10241759 192.31177171 255.96652414 176.1875 255.5625 C175.36503784 255.5429425 174.54257568 255.52338501 173.69519043 255.50323486 C171.41506631 255.44698047 169.13529683 255.38350239 166.85546875 255.31640625 C164.96284302 255.26141968 164.96284302 255.26141968 163.03198242 255.20532227 C160 255 160 255 157 254 C157 253.34 157 252.68 157 252 C155.741875 251.731875 154.48375 251.46375 153.1875 251.1875 C144.81819109 249.29850238 137.08653355 247.37068701 129.484375 243.28125 C126.90451428 241.91010658 126.90451428 241.91010658 123.734375 240.625 C111.03381702 235.25510297 99.43626992 227.66243153 88.58544922 219.23144531 C87.20431662 218.15869618 85.80844041 217.10498239 84.41015625 216.0546875 C73.26250218 207.48527622 62.98761035 197.58601099 53.75 187 C53.22559326 186.40179443 52.70118652 185.80358887 52.16088867 185.18725586 C48.78668315 181.22219093 46.69560607 177.71731062 44 173 C57.2 172.67 70.4 172.34 84 172 C80.7 168.37 77.4 164.74 74 161 C56.01545767 138.46408701 45.70623519 111.53768766 34.62304688 85.21679688 C30.2634168 74.87066051 25.84801195 64.54817113 21.4437561 54.22097778 C19.97968396 50.78645799 18.51718689 47.35127294 17.05541992 43.91577148 C16.59263138 42.82841202 16.12984283 41.74105255 15.6530304 40.6207428 C14.74535387 38.48693732 13.83850608 36.3527791 12.93254089 34.21824646 C10.75362261 29.09016389 8.55594852 23.97177245 6.31689453 18.86962891 C5.89501358 17.90297806 5.47313263 16.93632721 5.03846741 15.94038391 C4.24611557 14.12762767 3.44798886 12.31738039 2.64305115 10.51017761 C2.29363968 9.70864761 1.94422821 8.90711761 1.58422852 8.08129883 C1.12307396 7.03828362 1.12307396 7.03828362 0.65260315 5.97419739 C0 4 0 4 0 0 Z " fill="#246DD8" transform="translate(306,91)"/>
<path d="M0 0 C0.495 0.99 0.495 0.99 1 2 C-12.2 2 -25.4 2 -39 2 C-30.06448574 14.2863321 -21.01113195 25.56546448 -10 36 C-9.38125 36.58910156 -8.7625 37.17820312 -8.125 37.78515625 C17.37241996 61.02957143 48.70470909 75.24371064 82 83 C82 83.66 82 84.32 82 85 C57.25 85 32.5 85 7 85 C15.8365872 108.46766705 15.8365872 108.46766705 33.71911621 122.58836079 C37.76600313 124.0663397 41.35267626 124.38335467 45.68164062 124.39872742 C46.41126479 124.40537424 47.14088896 124.41202107 47.89262295 124.41886932 C50.31397769 124.43737895 52.73483304 124.43490228 55.15625 124.43237305 C56.90125723 124.44139759 58.64625813 124.4517265 60.39125061 124.46325684 C65.11171759 124.49077167 69.8320641 124.50010386 74.55260086 124.50611091 C79.49206542 124.51550894 84.4314405 124.5417135 89.37084961 124.56611633 C98.71683917 124.6097457 108.06281132 124.63831456 117.40887165 124.66143972 C128.05219527 124.68851048 138.69542872 124.73242085 149.3386879 124.77772844 C171.22574339 124.87052369 193.11282587 124.94222788 215 125 C216.10958279 127.20002354 217.21703562 129.40107803 218.32333374 131.60275269 C218.63351661 132.21723109 218.94369947 132.8317095 219.26328182 133.46480846 C222.27106446 139.45816816 224.93606892 145.5786725 227.5390625 151.7578125 C228.02780853 152.90812958 228.51655457 154.05844666 229.02011108 155.24362183 C230.55925048 158.86899363 232.09219663 162.49694551 233.625 166.125 C234.65845338 168.56136796 235.69230473 170.99756715 236.7265625 173.43359375 C241.63711795 185.00897289 241.63711795 185.00897289 243.70831299 189.94293213 C244.60650806 192.06871282 245.51794703 194.18892635 246.43963623 196.30462646 C247.12766327 197.90156342 247.12766327 197.90156342 247.82958984 199.53076172 C248.45430679 200.96269363 248.45430679 200.96269363 249.09164429 202.42355347 C250 205 250 205 250 209 C227.90215216 209.07032681 205.80432297 209.1231035 183.70638561 209.15543652 C173.44411141 209.17085359 163.18190707 209.19184348 152.91967773 209.22631836 C143.9669012 209.25637973 135.0141753 209.27561241 126.06134969 209.28226548 C121.32835923 209.28614962 116.59551351 209.29516799 111.86256981 209.31719017 C107.39169166 209.33782094 102.92101546 209.34378119 98.45009422 209.33932304 C96.82454321 209.34013654 95.19898418 209.34594171 93.57347488 209.35761642 C76.05102275 209.47710418 59.50627451 206.92943842 43 201 C42.00097656 200.64292969 41.00195312 200.28585937 39.97265625 199.91796875 C25.17016934 194.17159866 11.56446641 185.6172459 -1 176 C-1.94101562 175.28328125 -2.88203125 174.5665625 -3.8515625 173.828125 C-19.34695834 161.59256748 -31.98811668 147.01093137 -42 130 C-42.5775 129.03320312 -43.155 128.06640625 -43.75 127.0703125 C-49.59594916 116.71811085 -53.99060348 105.73964311 -58.52522278 94.77055359 C-58.81209457 94.07670059 -59.09896637 93.3828476 -59.39453125 92.66796875 C-59.68611618 91.96263504 -59.97770111 91.25730133 -60.27812195 90.53059387 C-63.34013479 83.14392387 -66.51127432 75.80562731 -69.69604492 68.47122192 C-70.68880604 66.18449167 -71.67965784 63.89694347 -72.66992188 61.60913086 C-75.5977033 54.84610911 -78.5279246 48.08417055 -81.46728516 41.32617188 C-83.57581439 36.47726474 -85.67687285 31.6251743 -87.77359009 26.77114868 C-88.58715249 24.89139379 -89.40335072 23.01277737 -90.22225952 21.13534546 C-91.36320721 18.51885436 -92.49509638 15.89861914 -93.625 13.27734375 C-93.9679158 12.49679626 -94.3108316 11.71624878 -94.66413879 10.91204834 C-96.19730762 7.33086943 -97 4.95249997 -97 1 C-48.985 0.505 -48.985 0.505 0 0 Z " fill="#71B6EF" transform="translate(362,417)"/>
<path d="M0 0 C5.81633719 -0.24861045 11.62953783 -0.42928809 17.44995117 -0.54931641 C19.42608544 -0.59937783 21.4018535 -0.6674543 23.37670898 -0.75439453 C39.80040018 -1.45891825 39.80040018 -1.45891825 45.15820312 2.09472656 C47.39712592 4.61515134 49.19884258 7.15664784 51 10 C58.29358105 17.56499697 67.59087827 23.31952461 76.390625 28.96044922 C77.72120237 29.819915 79.03489753 30.70545515 80.34375 31.59765625 C84.73886495 34.54274352 89.23036408 36.32904038 94.23046875 38.0390625 C96.76449189 38.91828633 99.21561539 39.89889302 101.6875 40.9375 C105.98872749 42.66208091 110.34471577 44.19009365 114.75 45.625 C115.98234375 46.02976562 117.2146875 46.43453125 118.484375 46.8515625 C129.56373353 49.93069262 140.80879653 50.28452465 152.2170887 50.27439499 C154.66030233 50.2734123 157.10309662 50.28656669 159.54624939 50.30337524 C166.48026558 50.34917387 173.41422572 50.37429354 180.34838867 50.38085938 C184.6181643 50.38587277 188.88748211 50.41008679 193.15710258 50.44618607 C194.7745635 50.45596248 196.39208743 50.4583278 198.00956917 50.45301437 C200.26347309 50.44594373 202.51600161 50.4632148 204.76977539 50.48583984 C206.04881241 50.48868988 207.32784943 50.49153992 208.64564514 50.49447632 C215.56865875 51.53782071 219.02730146 57.28047764 222.9375 62.5625 C223.68676758 63.54186523 223.68676758 63.54186523 224.45117188 64.54101562 C228.56782192 70.04935898 231.82555695 75.90842496 235 82 C218.94096312 82.37947448 202.88141501 82.68059426 186.81994629 82.93634033 C183.03314611 82.99944762 179.24658008 83.07094198 175.45996094 83.14404297 C169.28750897 83.25996961 163.11540402 83.33986261 156.94213867 83.39697266 C154.60523574 83.42352292 152.26842393 83.46072531 149.93188477 83.50976562 C128.08907969 83.95317789 107.25824996 80.39270355 87 72 C86.26265625 71.70867187 85.5253125 71.41734375 84.765625 71.1171875 C82.46371073 70.15661425 80.23816441 69.10212641 78 68 C77.41412109 67.7117334 76.82824219 67.4234668 76.22460938 67.12646484 C48.04826179 53.11433125 23.71170402 32.74123318 4.375 7.9375 C3.93631592 7.37667725 3.49763184 6.81585449 3.0456543 6.23803711 C0 2.24580206 0 2.24580206 0 0 Z " fill="#255DCE" transform="translate(323,419)"/>
<path d="M0 0 C5.74295446 -0.29969255 11.48124113 -0.51573005 17.23022461 -0.65917969 C19.1792741 -0.71903657 21.12779611 -0.80056467 23.07495117 -0.90527344 C40.98388121 -1.84325077 40.98388121 -1.84325077 47.9009552 4.1449585 C50.42237389 6.64578991 52.69859972 9.29430859 55 12 C60.54208783 16.92178169 66.5566659 21.1645958 72.6875 25.3125 C73.30544434 25.73354004 73.92338867 26.15458008 74.56005859 26.58837891 C78.56452959 29.24625153 82.53111043 31.22735959 87 33 C87 33.66 87 34.32 87 35 C87.84691406 35.26167969 88.69382812 35.52335937 89.56640625 35.79296875 C93.16329592 37.05740437 96.52138658 38.639135 99.9375 40.3125 C110.32779582 45.24843996 120.65533396 49.44744872 132.31640625 49.76171875 C135 50 135 50 137.7409668 50.99992371 C141.28278561 52.08677641 144.12949623 52.24502622 147.828125 52.23950195 C148.4826062 52.24151611 149.1370874 52.24353027 149.81140137 52.24560547 C151.22236714 52.24913144 152.63334878 52.24840816 154.04431152 52.24382973 C156.28135215 52.23820238 158.51788087 52.24744954 160.75488281 52.2610321 C167.11135264 52.29802404 173.46764407 52.31669501 179.82421875 52.30541992 C183.72176757 52.29955638 187.61859046 52.31788313 191.51599121 52.35130882 C192.99586966 52.35923974 194.4758277 52.35801713 195.95568848 52.34728432 C208.97022367 52.25692484 208.97022367 52.25692484 212.7590332 55.2878418 C213.49855225 56.182854 214.23807129 57.07786621 215 58 C215.57258545 58.67611328 216.1451709 59.35222656 216.73510742 60.04882812 C217.18732666 60.70302734 217.6395459 61.35722656 218.10546875 62.03125 C218.61400391 62.75957031 219.12253906 63.48789062 219.64648438 64.23828125 C220.15501953 64.98464844 220.66355469 65.73101562 221.1875 66.5 C221.96770508 67.61955078 221.96770508 67.61955078 222.76367188 68.76171875 C230 79.20495091 230 79.20495091 230 82 C214.74453089 83.01687685 199.53557854 83.15826131 184.25 83.125 C183.03341705 83.12378143 181.81683411 83.12256287 180.56338501 83.12130737 C164.4342808 83.10241759 148.31177171 82.96652414 132.1875 82.5625 C131.36503784 82.5429425 130.54257568 82.52338501 129.69519043 82.50323486 C127.41506631 82.44698047 125.13529683 82.38350239 122.85546875 82.31640625 C121.59371826 82.27974854 120.33196777 82.24309082 119.03198242 82.20532227 C116 82 116 82 113 81 C113 80.34 113 79.68 113 79 C111.741875 78.731875 110.48375 78.46375 109.1875 78.1875 C100.81819109 76.29850238 93.08653355 74.37068701 85.484375 70.28125 C82.90451428 68.91010658 82.90451428 68.91010658 79.734375 67.625 C67.03381702 62.25510297 55.43626992 54.66243153 44.58544922 46.23144531 C43.20431662 45.15869618 41.80844041 44.10498239 40.41015625 43.0546875 C29.26250218 34.48527622 18.98761035 24.58601099 9.75 14 C9.22559326 13.40179443 8.70118652 12.80358887 8.16088867 12.18725586 C4.88889214 8.34229781 2.46024553 4.40930526 0 0 Z " fill="#0E34BC" transform="translate(350,264)"/>
<path d="M0 0 C2.36556709 2.36556709 2.58244041 3.74303521 3 7 C1.35310687 8.64689313 -0.55780829 8.14218432 -2.82777405 8.15821838 C-3.87250381 8.1680072 -4.91723358 8.17779602 -5.99362183 8.18788147 C-7.14951813 8.19363693 -8.30541443 8.1993924 -9.49633789 8.20532227 C-10.70592667 8.21522186 -11.91551544 8.22512146 -13.16175842 8.23532104 C-16.48803422 8.26157156 -19.81428521 8.28340756 -23.1406014 8.30332303 C-26.61332779 8.32514495 -30.08600987 8.35255214 -33.55870056 8.37937927 C-40.13892978 8.42935763 -46.71918352 8.4742773 -53.29946083 8.51740164 C-60.78909259 8.56673016 -68.2786799 8.6216645 -75.7682687 8.67708123 C-91.17880476 8.79098018 -106.58938164 8.8978019 -122 9 C-122 8.01 -122 7.02 -122 6 C-81.41 6 -40.82 6 1 6 C0.505 3.03 0.505 3.03 0 0 Z " fill="#72A0E5" transform="translate(682,310)"/>
<path d="M0 0 C62.7 0 125.4 0 190 0 C190 0.33 190 0.66 190 1 C128.29 1.33 66.58 1.66 3 2 C2.34 3.32 1.68 4.64 1 6 C0.67 4.02 0.34 2.04 0 0 Z " fill="#528CDF" transform="translate(306,91)"/>
<path d="M0 0 C18.81 0 37.62 0 57 0 C56.67 0.66 56.34 1.32 56 2 C38.18 2 20.36 2 2 2 C6.63995397 12.68563979 6.63995397 12.68563979 11.30493164 23.36035156 C11.88258158 24.70338569 12.4593812 26.04678601 13.03515625 27.390625 C13.49625793 28.42872314 13.49625793 28.42872314 13.9666748 29.48779297 C16.07091892 34.44211187 16.07091892 34.44211187 15.68530273 37.47558594 C15.45915283 37.97864258 15.23300293 38.48169922 15 39 C12.85448047 34.0926947 10.71852439 29.18138063 8.59130859 24.26611328 C7.86638296 22.59472994 7.13886101 20.92447019 6.40869141 19.25537109 C5.35935123 16.85545159 4.31942744 14.45164064 3.28125 12.046875 C2.95314331 11.30193787 2.62503662 10.55700073 2.2869873 9.78948975 C0.76717147 6.2447818 0 3.91528709 0 0 Z " fill="#A1CDF1" transform="translate(265,418)"/>
<path d="M0 0 C0.66 0 1.32 0 2 0 C2.25642776 0.60277267 2.51285553 1.20554535 2.77705383 1.82658386 C5.44942594 8.10640508 8.12691598 14.384026 10.80737305 20.66040039 C11.8067322 23.00228875 12.8047901 25.34473285 13.80151367 27.68774414 C15.23533931 31.05762732 16.67385015 34.42547677 18.11328125 37.79296875 C18.55714676 38.83897751 19.00101227 39.88498627 19.45832825 40.96269226 C19.87853745 41.94333145 20.29874664 42.92397064 20.73168945 43.93432617 C21.09809036 44.79370285 21.46449127 45.65307953 21.84199524 46.53849792 C22.9781048 49.07949389 22.9781048 49.07949389 24.63005066 51.60957336 C26.32656191 54.56981836 26.23417929 56.64343019 26 60 C23.51168012 57.51168012 22.6943605 55.19521053 21.34765625 51.9375 C21.09142487 51.32198273 20.83519348 50.70646545 20.57119751 50.07229614 C19.7304276 48.05004703 18.89648146 46.02505697 18.0625 44 C17.19054897 41.89742348 16.31696563 39.79552961 15.44337463 37.69363403 C14.84807846 36.26083879 14.253388 34.82779175 13.6592865 33.39450073 C11.69258024 28.65228022 9.70397442 23.91990789 7.6953125 19.1953125 C7.18734131 18.00035156 6.67937012 16.80539062 6.15600586 15.57421875 C5.18902471 13.30297857 4.22111238 11.03213457 3.25219727 8.76171875 C2.6072229 7.24384766 2.6072229 7.24384766 1.94921875 5.6953125 C1.57112061 4.80859863 1.19302246 3.92188477 0.8034668 3.00830078 C0 1 0 1 0 0 Z " fill="#B5D8F6" transform="translate(288,474)"/>
</svg>
